<?xml version="1.0" encoding="UTF-8"?>
<!-- Simplified, well-formed SVG for README. Save as UTF-8 (no BOM). -->
<svg xmlns="http://www.w3.org/2000/svg" width="680" height="230" viewBox="0 0 680 230" role="img" aria-label="Avatar">
  <defs>
    <linearGradient id="skin" x1="0" x2="0" y1="0" y2="1">
      <stop offset="0%" stop-color="#FFDCC0"/>
      <stop offset="100%" stop-color="#FFC9A8"/>
    </linearGradient>
    <linearGradient id="hair" x1="0" x2="1" y1="0" y2="1">
      <stop offset="0%" stop-color="#2b2e6f"/>
      <stop offset="100%" stop-color="#6b51d9"/>
    </linearGradient>
    <linearGradient id="jacket" x1="0" x2="0" y1="0" y2="1">
      <stop offset="0%" stop-color="#3b82f6"/>
      <stop offset="100%" stop-color="#2563eb"/>
    </linearGradient>
  </defs>

  <rect x="6" y="6" rx="20" ry="20" width="668" height="218" fill="#ffffff" stroke="#e6eef7" stroke-width="1"/>

  <!-- Avatar -->
  <g transform="translate(40,20)">
    <path d="M50 40 C30 30 30 90 50 100 C75 115 175 115 200 100 C220 90 220 35 200 40 C170 50 120 48 50 40 Z"
          fill="url(#hair)"/>
    <circle cx="125" cy="110" r="52" fill="url(#skin)" stroke="#eeb88f" stroke-width="1.2"/>
    <ellipse cx="112" cy="126" rx="12" ry="6" fill="#ffb6c1" opacity="0.9"/>
    <ellipse cx="138" cy="126" rx="12" ry="6" fill="#ffb6c1" opacity="0.9"/>
    <ellipse cx="115" cy="105" rx="9" ry="7" fill="#fff"/>
    <circle cx="115" cy="105" r="3.5" fill="#0b1220"/>
    <ellipse cx="135" cy="105" rx="9" ry="7" fill="#fff"/>
    <circle cx="135" cy="105" r="3.5" fill="#0b1220"/>
    <path d="M115 142 Q125 152 135 142" stroke="#5a3828" stroke-width="3" fill="none" stroke-linecap="round"/>
    <rect x="110" y="160" width="30" height="10" rx="3" fill="url(#skin)"/>
    <g transform="translate(70,170)">
      <rect x="0" y="0" rx="14" ry="14" width="110" height="60" fill="url(#jacket)"/>
      <rect x="12" y="8" rx="10" ry="10" width="86" height="44" fill="#2563eb" opacity="0.95"/>
    </g>
  </g>

  <!-- Text (use numeric entities for special chars) -->
  <g transform="translate(320,50)">
    <circle cx="12" cy="8" r="6" fill="#10b981"/>
    <text x="28" y="16" font-family="Segoe UI, Roboto, Arial" font-weight="700" font-size="28" fill="#0f172a">Hi, I'm DeepakMewada20</text>
    <text x="28" y="44" font-family="Segoe UI, Roboto, Arial" font-weight="600" font-size="18" fill="#374151">Flutter Developer &#8226; UI &amp; Mobile</text>
    <text x="28" y="70" font-family="Segoe UI, Roboto, Arial" font-weight="400" font-size="14" fill="#6b7280">Building beautiful, responsive apps</text>
  </g>

  <text x="320" y="210" font-family="Segoe UI, Roboto, Arial" font-weight="400" font-size="11" fill="#9aa4b2">Made with &#10084; &#8226; SVG</text>
</svg>
